<?xml version="1.0" standalone="no"?>
<!DOCTYPE svg PUBLIC "-//W3C//DTD SVG 20010904//EN"
 "http://www.w3.org/TR/2001/REC-SVG-20010904/DTD/svg10.dtd">
<svg version="1.0" xmlns="http://www.w3.org/2000/svg"
 width="700.000000pt" height="700.000000pt" viewBox="0 0 700.000000 700.000000"
 preserveAspectRatio="xMidYMid meet">
<metadata>
Created by potrace 1.11, written by Peter Selinger 2001-2013
</metadata>
<g transform="translate(0.000000,700.000000) scale(0.100000,-0.100000)"
fill="#000000" stroke="none">
<path d="M770 3400 l0 -2000 1326 2 1326 3 252 635 252 635 956 3 956 2 75
-192 c42 -106 155 -393 251 -638 l175 -445 135 -3 c75 -1 136 -1 136 1 0 1
-354 900 -788 1997 l-787 1995 -140 3 -140 2 -759 -1890 -759 -1890 -1108 0
-1109 0 0 1890 0 1890 -125 0 -125 0 0 -2000z m4559 630 c233 -616 422 -1123
419 -1125 -3 -3 -394 -4 -870 -3 l-866 3 441 1122 c243 618 444 1123 447 1123
3 0 196 -504 429 -1120z"/>
</g>
</svg>
